<?xml version="1.0" encoding="UTF-8" standalone="no"?>
<svg
   xmlns:dc="http://purl.org/dc/elements/1.1/"
   xmlns:cc="http://creativecommons.org/ns#"
   xmlns:rdf="http://www.w3.org/1999/02/22-rdf-syntax-ns#"
   xmlns:svg="http://www.w3.org/2000/svg"
   xmlns="http://www.w3.org/2000/svg"
   version="1.1"
   id="svg6561"
   viewBox="0 0 1240.1575 1240.1575"
   height="350mm"
   width="350mm">
  <defs
     id="defs6563" />
  <metadata
     id="metadata6566">
    <rdf:RDF>
      <cc:Work
         rdf:about="">
        <dc:format>image/svg+xml</dc:format>
        <dc:type
           rdf:resource="http://purl.org/dc/dcmitype/StillImage" />
        <dc:title></dc:title>
      </cc:Work>
    </rdf:RDF>
  </metadata>
  <g
     transform="translate(0,187.79532)"
     id="layer1">
    <g
       id="g6510"
       transform="translate(-379.9212,366.7105)">
      <path
         style="fill:#000000;fill-opacity:1"
         d="m 1000.4141,-478.46115 0,281.05956 c 0.279,6.4e-4 0.5589,-0.005 0.8379,-0.004 156.2515,0.6347 337.4785,80.42172 400.3339,228.5957 146.6756,-61.2443 -85.848,-324.38067 -101.7461,-429.60546 -0.2723,-2.59828 -0.4898,-4.44064 -0.6933,-6.13477 0.015,-0.0128 0.031,-0.0137 0.047,-0.0332 0.087,-8.00637 -7.9882,-14.4127 -25.6041,1.99414 -16.777,16.0126 -69.9147,53.61743 -114.0527,57.73633 -167.2555,-84.90358 -115.1755,-94.78017 -159.1226,-133.6083 z"
         id="path6142-8-5" />
      <circle
         style="opacity:1;fill:#000000;fill-opacity:1;stroke:#000000;stroke-width:2;stroke-linecap:round;stroke-linejoin:round;stroke-miterlimit:4;stroke-dasharray:none;stroke-opacity:1"
         id="path6506"
         cx="1000.6512"
         cy="-487.82138"
         r="38.62598" />
      <circle
         r="38.62598"
         cy="-437.2533"
         cx="1298.0397"
         id="circle6508"
         style="opacity:1;fill:#000000;fill-opacity:1;stroke:#000000;stroke-width:2;stroke-linecap:round;stroke-linejoin:round;stroke-miterlimit:4;stroke-dasharray:none;stroke-opacity:1" />
    </g>
    <circle
       style="opacity:1;fill:#000000;fill-opacity:1;stroke:#000000;stroke-width:2;stroke-linecap:round;stroke-linejoin:round;stroke-miterlimit:4;stroke-dasharray:none;stroke-opacity:1"
       id="circle6519"
       cx="620.72998"
       cy="-121.11086"
       r="38.62598" />
    <g
       id="g6526"
       transform="translate(-379.9212,366.7105)">
      <path
         id="path6517"
         d="m 1000.4141,-478.46115 0,281.05956 c 0.279,6.4e-4 0.5589,-0.005 0.8379,-0.004 156.2515,0.6347 337.4785,80.42172 400.3339,228.5957 146.6756,-61.2443 -85.848,-324.38067 -101.7461,-429.60546 -0.2723,-2.59828 -0.4898,-4.44064 -0.6933,-6.13477 0.015,-0.0128 0.031,-0.0137 0.047,-0.0332 0.087,-8.00637 -7.9882,-14.4127 -25.6041,1.99414 -16.777,16.0126 -69.9147,53.61743 -114.0527,57.73633 -167.2555,-84.90358 -115.1755,-94.78017 -159.1226,-133.6083 z"
         style="fill:#000000;fill-opacity:1" />
      <circle
         style="opacity:1;fill:#000000;fill-opacity:1;stroke:#000000;stroke-width:2;stroke-linecap:round;stroke-linejoin:round;stroke-miterlimit:4;stroke-dasharray:none;stroke-opacity:1"
         id="circle6521"
         cx="1298.0397"
         cy="-437.2533"
         r="38.62598" />
    </g>
    <g
       transform="matrix(-0.99999994,0,0,0.99999994,1622.3995,366.7105)"
       id="g6530">
      <path
         style="fill:#000000;fill-opacity:1"
         d="m 1000.4141,-478.46115 0,281.05956 c 0.279,6.4e-4 0.5589,-0.005 0.8379,-0.004 156.2515,0.6347 337.4785,80.42172 400.3339,228.5957 146.6756,-61.2443 -85.848,-324.38067 -101.7461,-429.60546 -0.2723,-2.59828 -0.4898,-4.44064 -0.6933,-6.13477 0.015,-0.0128 0.031,-0.0137 0.047,-0.0332 0.087,-8.00637 -7.9882,-14.4127 -25.6041,1.99414 -16.777,16.0126 -69.9147,53.61743 -114.0527,57.73633 -167.2555,-84.90358 -115.1755,-94.78017 -159.1226,-133.6083 z"
         id="path6532" />
      <circle
         r="38.62598"
         cy="-437.2533"
         cx="1298.0397"
         id="circle6534"
         style="opacity:1;fill:#000000;fill-opacity:1;stroke:#000000;stroke-width:2;stroke-linecap:round;stroke-linejoin:round;stroke-miterlimit:4;stroke-dasharray:none;stroke-opacity:1" />
    </g>
    <circle
       r="444.56577"
       cy="589.73792"
       cx="620.07874"
       id="path6214-0"
       style="opacity:1;fill:#000000;fill-opacity:1;stroke:#ffffff;stroke-width:30.00000191;stroke-linecap:round;stroke-miterlimit:4;stroke-dasharray:none;stroke-opacity:1" />
    <g
       style="stroke-width:14.07843876;stroke-miterlimit:4;stroke-dasharray:none"
       transform="matrix(1.6604402,0,0,1.2154239,277.9199,599.96514)"
       id="g6363">
      <path
         style="opacity:1;fill:none;fill-opacity:1;stroke:#ffffff;stroke-width:14.07843876;stroke-linecap:round;stroke-linejoin:round;stroke-miterlimit:4;stroke-dasharray:none;stroke-opacity:1"
         id="path6342"
         d="m -186.12785,287.75403 a 19.937443,25.39658 0 0 1 -19.88024,25.39647 19.937443,25.39658 0 0 1 -19.99432,-25.25073"
         transform="scale(-1,-1)" />
      <path
         style="opacity:1;fill:none;fill-opacity:1;stroke:#ffffff;stroke-width:14.07843876;stroke-linecap:round;stroke-linejoin:round;stroke-miterlimit:4;stroke-dasharray:none;stroke-opacity:1"
         id="path6342-5"
         d="m 226.00245,-92.997093 a 19.937443,25.39658 0 0 1 -19.88024,25.396475 19.937443,25.39658 0 0 1 -19.99432,-25.250734" />
      <path
         style="fill:none;fill-rule:evenodd;stroke:#ffffff;stroke-width:14.07843876;stroke-linecap:butt;stroke-linejoin:miter;stroke-miterlimit:4;stroke-dasharray:none;stroke-opacity:1"
         d="m 186.12882,-288.00686 -9.5e-4,195.15545"
         id="path6359" />
      <path
         style="fill:none;fill-rule:evenodd;stroke:#ffffff;stroke-width:14.07843876;stroke-linecap:butt;stroke-linejoin:miter;stroke-miterlimit:4;stroke-dasharray:none;stroke-opacity:1"
         d="m 226.0024,-287.89983 4e-5,194.902681"
         id="path6361" />
    </g>
  </g>
</svg>
